<?xml version="1.0" encoding="UTF-8"?>
<svg width="120" height="120" viewBox="0 0 120 120" fill="none" xmlns="http://www.w3.org/2000/svg">
  <defs>
    <linearGradient id="grad" x1="0" y1="0" x2="120" y2="120" gradientUnits="userSpaceOnUse">
      <stop offset="0%" stop-color="#f472b6"/>
      <stop offset="100%" stop-color="#60a5fa"/>
    </linearGradient>
  </defs>
  <!-- Left heart -->
  <path d="M40 30C28 30 20 40 20 50c0 20 40 40 40 40s40-20 40-40c0-10-8-20-20-20-8 0-15 5-20 12-5-7-12-12-20-12z" fill="url(#grad)"/>
  <!-- Right heart shifted -->
  <path d="M60 30c-12 0-20 10-20 20 0 20 40 40 40 40s40-20 40-40c0-10-8-20-20-20-8 0-15 5-20 12-5-7-12-12-20-12z" transform="translate(-10 0)" fill="url(#grad)" opacity="0.6"/>
</svg>
